<svg width="33" height="32" viewBox="0 0 33 32" fill="none" xmlns="http://www.w3.org/2000/svg">
<path d="M26.7383 11.9462C25.845 10.9595 24.4983 10.3862 22.6317 10.1862V9.17288C22.6317 7.34621 21.8583 5.58621 20.4983 4.35954C19.125 3.10621 17.3383 2.51954 15.485 2.69287C12.2983 2.99954 9.61834 6.07954 9.61834 9.41288V10.1862C7.75167 10.3862 6.40501 10.9595 5.51167 11.9462C4.21834 13.3862 4.25834 15.3062 4.40501 16.6395L5.33834 24.0662C5.61834 26.6662 6.67167 29.3329 12.405 29.3329H19.845C25.5783 29.3329 26.6317 26.6662 26.9117 24.0795L27.845 16.6262C27.9917 15.3062 28.0183 13.3862 26.7383 11.9462ZM15.6717 4.54621C17.005 4.42621 18.2717 4.83954 19.2583 5.73288C20.2317 6.61288 20.7783 7.86621 20.7783 9.17288V10.1062H11.4717V9.41288C11.4717 7.03954 13.4317 4.75954 15.6717 4.54621ZM11.3517 17.5329H11.3383C10.605 17.5329 10.005 16.9329 10.005 16.1995C10.005 15.4662 10.605 14.8662 11.3383 14.8662C12.085 14.8662 12.685 15.4662 12.685 16.1995C12.685 16.9329 12.085 17.5329 11.3517 17.5329ZM20.685 17.5329H20.6717C19.9383 17.5329 19.3383 16.9329 19.3383 16.1995C19.3383 15.4662 19.9383 14.8662 20.6717 14.8662C21.4183 14.8662 22.0183 15.4662 22.0183 16.1995C22.0183 16.9329 21.4183 17.5329 20.685 17.5329Z" fill="#00A0B4"/>
</svg>
