<svg width="33" height="32" viewBox="0 0 33 32" fill="none" xmlns="http://www.w3.org/2000/svg">
<path d="M27.425 9.25366C27.425 9.97366 27.0383 10.627 26.425 10.9603L24.105 12.2137L22.1317 13.267L18.0383 15.4803C17.5983 15.7203 17.1183 15.8403 16.625 15.8403C16.1317 15.8403 15.6517 15.7203 15.2117 15.4803L6.825 10.9603C6.21166 10.627 5.825 9.97366 5.825 9.25366C5.825 8.53366 6.21166 7.88033 6.825 7.54699L9.45166 6.13366L11.545 5.00033L15.2117 3.02699C16.0917 2.54699 17.1583 2.54699 18.0383 3.02699L26.425 7.54699C27.0383 7.88033 27.425 8.53366 27.425 9.25366Z" fill="#8E3BE0"/>
<path d="M13.825 17.0535L6.025 13.1602C5.425 12.8535 4.73166 12.8935 4.15833 13.2402C3.585 13.5869 3.25166 14.2002 3.25166 14.8669V22.2402C3.25166 23.5202 3.95833 24.6669 5.105 25.2402L12.905 29.1335C13.1717 29.2669 13.465 29.3335 13.7583 29.3335C14.105 29.3335 14.4517 29.2402 14.7583 29.0402C15.3317 28.6935 15.665 28.0802 15.665 27.4135V20.0402C15.6783 18.7735 14.9717 17.6269 13.825 17.0535Z" fill="#8E3BE0"/>
<path d="M29.9983 14.8665V22.2398C29.9983 23.5065 29.2917 24.6532 28.145 25.2265L20.345 29.1332C20.0783 29.2665 19.785 29.3332 19.4917 29.3332C19.145 29.3332 18.7983 29.2398 18.4783 29.0398C17.9183 28.6932 17.5717 28.0798 17.5717 27.4132V20.0532C17.5717 18.7732 18.2783 17.6265 19.425 17.0532L22.2917 15.6265L24.2917 14.6265L27.225 13.1598C27.825 12.8532 28.5183 12.8798 29.0917 13.2398C29.6517 13.5865 29.9983 14.1998 29.9983 14.8665Z" fill="#8E3BE0"/>
<path d="M24.105 12.2133L22.1317 13.2667L9.45166 6.13333L11.545 5L23.785 11.9067C23.9183 11.9867 24.025 12.0933 24.105 12.2133Z" fill="#8E3BE0"/>
<path d="M24.2917 14.626V17.6526C24.2917 18.1993 23.8383 18.6526 23.2917 18.6526C22.745 18.6526 22.2917 18.1993 22.2917 17.6526V15.626L24.2917 14.626Z" fill="#8E3BE0"/>
</svg>
