<svg width="33" height="32" viewBox="0 0 33 32" fill="none" xmlns="http://www.w3.org/2000/svg">
<path d="M15.625 10.7734V14.5868L14.2783 14.1201C13.5983 13.8801 13.185 13.6534 13.185 12.4934C13.185 11.5468 13.8917 10.7734 14.7583 10.7734H15.625V10.7734Z" fill="#00A0B4"/>
<path d="M20.065 19.5074C20.065 20.4541 19.3583 21.2274 18.4917 21.2274H17.625V17.4141L18.9717 17.8807C19.6517 18.1207 20.065 18.3474 20.065 19.5074Z" fill="#00A0B4"/>
<path d="M22.2117 2.66699H11.0383C6.185 2.66699 3.29167 5.56033 3.29167 10.4137V21.587C3.29167 26.4403 6.185 29.3337 11.0383 29.3337H22.2117C27.065 29.3337 29.9583 26.4403 29.9583 21.587V10.4137C29.9583 5.56033 27.065 2.66699 22.2117 2.66699ZM19.6383 16.0003C20.6783 16.3603 22.065 17.1203 22.065 19.507C22.065 21.5603 20.465 23.227 18.4917 23.227H17.625V24.0003C17.625 24.547 17.1717 25.0003 16.625 25.0003C16.0783 25.0003 15.625 24.547 15.625 24.0003V23.227H15.145C12.9583 23.227 11.185 21.3737 11.185 19.107C11.185 18.5603 11.625 18.107 12.185 18.107C12.7317 18.107 13.185 18.5603 13.185 19.107C13.185 20.2803 14.065 21.227 15.145 21.227H15.625V16.707L13.6117 16.0003C12.5717 15.6403 11.185 14.8803 11.185 12.4937C11.185 10.4403 12.785 8.77366 14.7583 8.77366H15.625V8.00033C15.625 7.45366 16.0783 7.00033 16.625 7.00033C17.1717 7.00033 17.625 7.45366 17.625 8.00033V8.77366H18.105C20.2917 8.77366 22.065 10.627 22.065 12.8937C22.065 13.4403 21.625 13.8937 21.065 13.8937C20.5183 13.8937 20.065 13.4403 20.065 12.8937C20.065 11.7203 19.185 10.7737 18.105 10.7737H17.625V15.2937L19.6383 16.0003Z" fill="#00A0B4"/>
</svg>
