<svg width="33" height="32" viewBox="0 0 33 32" fill="none" xmlns="http://www.w3.org/2000/svg">
<path d="M12.0417 4.66602V2.66602C12.0417 2.11935 11.5884 1.66602 11.0417 1.66602C10.495 1.66602 10.0417 2.11935 10.0417 2.66602V4.74602C10.375 4.70602 10.6817 4.66602 11.0417 4.66602H12.0417Z" fill="#FF7D00"/>
<path d="M22.7083 4.74602V2.66602C22.7083 2.11935 22.255 1.66602 21.7083 1.66602C21.1617 1.66602 20.7083 2.11935 20.7083 2.66602V4.66602H21.7083C22.0683 4.66602 22.375 4.70602 22.7083 4.74602Z" fill="#FF7D00"/>
<path d="M22.7083 4.74602V6.66602C22.7083 7.21268 22.255 7.66602 21.7083 7.66602C21.1617 7.66602 20.7083 7.21268 20.7083 6.66602V4.66602H12.0417V6.66602C12.0417 7.21268 11.5883 7.66602 11.0417 7.66602C10.495 7.66602 10.0417 7.21268 10.0417 6.66602V4.74602C6.10833 5.10602 4.375 7.63935 4.375 11.3327V22.666C4.375 26.666 6.375 29.3327 11.0417 29.3327H21.7083C26.375 29.3327 28.375 26.666 28.375 22.666V11.3327C28.375 7.63935 26.6417 5.10602 22.7083 4.74602ZM16.375 22.3327H11.0417C10.495 22.3327 10.0417 21.8793 10.0417 21.3327C10.0417 20.786 10.495 20.3327 11.0417 20.3327H16.375C16.9217 20.3327 17.375 20.786 17.375 21.3327C17.375 21.8793 16.9217 22.3327 16.375 22.3327ZM21.7083 15.666H11.0417C10.495 15.666 10.0417 15.2127 10.0417 14.666C10.0417 14.1193 10.495 13.666 11.0417 13.666H21.7083C22.255 13.666 22.7083 14.1193 22.7083 14.666C22.7083 15.2127 22.255 15.666 21.7083 15.666Z" fill="#FF7D00"/>
</svg>
