<svg width="33" height="32" viewBox="0 0 33 32" fill="none" xmlns="http://www.w3.org/2000/svg">
<path d="M12.2131 14.8843C11.1365 16.1723 9.52054 17.0042 7.79428 17.0042C6.77719 17.0042 5.83722 16.7608 5.02438 16.3301V21.3204C5.02438 24.4392 5.65559 26.3644 6.82608 27.5349C7.99657 28.7054 9.92175 29.3366 13.0406 29.3366H20.7668C23.8856 29.3366 25.8108 28.7054 26.9813 27.5349C28.1518 26.3644 28.783 24.4392 28.783 21.3204V16.2993C27.9572 16.7492 26.9969 17.0042 25.9558 17.0042C24.2279 17.0042 22.6125 16.1719 21.5334 14.8843H21.2059C20.2515 16.1758 18.7097 17.0042 16.9108 17.0042C15.1118 17.0042 13.5699 16.1758 12.6155 14.8843H12.2131Z" fill="#009DE3"/>
<path d="M4.0592 10.8699L4.44425 6.94802C4.69262 5.1701 5.13496 4.17108 5.76722 3.58707C6.38859 3.01311 7.38069 2.66992 9.15603 2.66992H12.423L11.5295 11.6192L11.5292 11.6217C11.35 13.4707 9.64824 15.0042 7.79428 15.0042C5.4922 15.0042 3.83087 13.1645 4.0592 10.8699Z" fill="#009DE3"/>
<path d="M20.2161 11.8176L19.3027 2.66992H14.4757L13.6058 11.3431C13.4059 13.38 14.8812 15.0042 16.9108 15.0042C18.7439 15.0042 20.125 13.68 20.228 11.9228C20.2238 11.8889 20.22 11.8548 20.2164 11.8207L20.2161 11.8176Z" fill="#009DE3"/>
<path d="M25.9558 15.0042C24.1715 15.0042 22.5232 13.5819 22.2332 11.8197C22.2374 11.5988 22.2286 11.3742 22.2063 11.1469L21.3687 2.66992H24.5797C26.3551 2.66992 27.3472 3.01311 27.9685 3.58707C28.601 4.17128 29.0434 5.17075 29.2917 6.94977L29.6911 10.8723C29.9188 13.1664 28.2575 15.0042 25.9558 15.0042Z" fill="#009DE3"/>
</svg>
