<svg width="33" height="32" viewBox="0 0 33 32" fill="none" xmlns="http://www.w3.org/2000/svg">
<path d="M30.2083 14.333C30.755 14.333 31.2083 13.8797 31.2083 13.333V11.9997C31.2083 6.11967 29.4217 4.33301 23.5417 4.33301H15.2083V7.33301C15.2083 7.87967 14.755 8.33301 14.2083 8.33301C13.6617 8.33301 13.2083 7.87967 13.2083 7.33301V4.33301H10.2083C4.32832 4.33301 2.54166 6.11967 2.54166 11.9997V12.6663C2.54166 13.213 2.99499 13.6663 3.54166 13.6663C4.82166 13.6663 5.87499 14.7197 5.87499 15.9997C5.87499 17.2797 4.82166 18.333 3.54166 18.333C2.99499 18.333 2.54166 18.7863 2.54166 19.333V19.9997C2.54166 25.8797 4.32832 27.6663 10.2083 27.6663H13.2083V24.6663C13.2083 24.1197 13.6617 23.6663 14.2083 23.6663C14.755 23.6663 15.2083 24.1197 15.2083 24.6663V27.6663H23.5417C29.4217 27.6663 31.2083 25.8797 31.2083 19.9997C31.2083 19.453 30.755 18.9997 30.2083 18.9997C28.9283 18.9997 27.875 17.9463 27.875 16.6663C27.875 15.3863 28.9283 14.333 30.2083 14.333ZM15.2083 18.893C15.2083 19.4397 14.755 19.893 14.2083 19.893C13.6617 19.893 13.2083 19.4397 13.2083 18.893V13.1063C13.2083 12.5597 13.6617 12.1063 14.2083 12.1063C14.755 12.1063 15.2083 12.5597 15.2083 13.1063V18.893Z" fill="#FF7D00"/>
</svg>
